<mxfile host="app.diagrams.net" agent="Mozilla/5.0 (Windows NT 10.0; Win64; x64) AppleWebKit/537.36 (KHTML, like Gecko) Chrome/136.0.0.0 Safari/537.36" version="27.1.1" pages="3">
  <diagram id="C5RBs43oDa-KdzZeNtuy" name="Page-1">
    <mxGraphModel dx="1793" dy="884" grid="1" gridSize="10" guides="1" tooltips="1" connect="1" arrows="1" fold="1" page="1" pageScale="1" pageWidth="827" pageHeight="1169" math="0" shadow="0">
      <root>
        <mxCell id="WIyWlLk6GJQsqaUBKTNV-0" />
        <mxCell id="WIyWlLk6GJQsqaUBKTNV-1" parent="WIyWlLk6GJQsqaUBKTNV-0" />
        <mxCell id="m4ZO5GO4-T3lixzv__rx-2" value="SHOPPING CENTER" style="swimlane;whiteSpace=wrap;html=1;" parent="WIyWlLk6GJQsqaUBKTNV-1" vertex="1">
          <mxGeometry x="24" y="10" width="780" height="510" as="geometry" />
        </mxCell>
        <mxCell id="m4ZO5GO4-T3lixzv__rx-5" value="MASTER" style="swimlane;whiteSpace=wrap;html=1;startSize=23;" parent="m4ZO5GO4-T3lixzv__rx-2" vertex="1">
          <mxGeometry x="10" y="30" width="260" height="470" as="geometry" />
        </mxCell>
        <mxCell id="m4ZO5GO4-T3lixzv__rx-13" value="2. TRANSMITTER" style="rounded=0;whiteSpace=wrap;html=1;fillColor=#F9FF84;" parent="m4ZO5GO4-T3lixzv__rx-5" vertex="1">
          <mxGeometry x="140" y="220" width="120" height="60" as="geometry" />
        </mxCell>
        <mxCell id="m4ZO5GO4-T3lixzv__rx-21" value="8. MOUNT SYSTEM" style="rounded=0;whiteSpace=wrap;html=1;fillColor=#82CEFF;" parent="m4ZO5GO4-T3lixzv__rx-5" vertex="1">
          <mxGeometry x="56" y="320" width="120" height="60" as="geometry" />
        </mxCell>
        <mxCell id="m4ZO5GO4-T3lixzv__rx-6" value="&quot;FOLLOW ME&quot; ROBOT (SLAVE)&amp;nbsp;" style="swimlane;whiteSpace=wrap;html=1;" parent="m4ZO5GO4-T3lixzv__rx-2" vertex="1">
          <mxGeometry x="450" y="30" width="320" height="470" as="geometry" />
        </mxCell>
        <mxCell id="m4ZO5GO4-T3lixzv__rx-16" style="edgeStyle=orthogonalEdgeStyle;rounded=0;orthogonalLoop=1;jettySize=auto;html=1;entryX=0;entryY=0.5;entryDx=0;entryDy=0;" parent="m4ZO5GO4-T3lixzv__rx-6" source="m4ZO5GO4-T3lixzv__rx-11" target="m4ZO5GO4-T3lixzv__rx-14" edge="1">
          <mxGeometry relative="1" as="geometry" />
        </mxCell>
        <mxCell id="m4ZO5GO4-T3lixzv__rx-11" value="3. RECEIVER&amp;nbsp;" style="rounded=0;whiteSpace=wrap;html=1;fillColor=#FF8282;" parent="m4ZO5GO4-T3lixzv__rx-6" vertex="1">
          <mxGeometry y="220" width="120" height="60" as="geometry" />
        </mxCell>
        <mxCell id="aFEqiTyNvZreS5R_LPJA-0" style="edgeStyle=orthogonalEdgeStyle;rounded=0;orthogonalLoop=1;jettySize=auto;html=1;entryX=0.5;entryY=0;entryDx=0;entryDy=0;" parent="m4ZO5GO4-T3lixzv__rx-6" source="m4ZO5GO4-T3lixzv__rx-14" target="m4ZO5GO4-T3lixzv__rx-24" edge="1">
          <mxGeometry relative="1" as="geometry" />
        </mxCell>
        <mxCell id="m4ZO5GO4-T3lixzv__rx-14" value="4. CONTROL" style="rounded=0;whiteSpace=wrap;html=1;fillColor=#97D077;" parent="m4ZO5GO4-T3lixzv__rx-6" vertex="1">
          <mxGeometry x="110" y="130" width="120" height="60" as="geometry" />
        </mxCell>
        <mxCell id="m4ZO5GO4-T3lixzv__rx-18" style="edgeStyle=orthogonalEdgeStyle;rounded=0;orthogonalLoop=1;jettySize=auto;html=1;" parent="m4ZO5GO4-T3lixzv__rx-6" source="m4ZO5GO4-T3lixzv__rx-17" edge="1">
          <mxGeometry relative="1" as="geometry">
            <mxPoint x="170" y="120" as="targetPoint" />
          </mxGeometry>
        </mxCell>
        <mxCell id="aFEqiTyNvZreS5R_LPJA-1" style="edgeStyle=orthogonalEdgeStyle;rounded=0;orthogonalLoop=1;jettySize=auto;html=1;exitX=1;exitY=0;exitDx=0;exitDy=0;" parent="m4ZO5GO4-T3lixzv__rx-6" source="m4ZO5GO4-T3lixzv__rx-17" target="m4ZO5GO4-T3lixzv__rx-20" edge="1">
          <mxGeometry relative="1" as="geometry">
            <Array as="points">
              <mxPoint x="140" y="30" />
              <mxPoint x="316" y="30" />
              <mxPoint x="316" y="450" />
              <mxPoint x="60" y="450" />
            </Array>
          </mxGeometry>
        </mxCell>
        <mxCell id="m4ZO5GO4-T3lixzv__rx-17" value="5. POWER SYSTEM" style="rounded=0;whiteSpace=wrap;html=1;fillColor=#FFCC99;" parent="m4ZO5GO4-T3lixzv__rx-6" vertex="1">
          <mxGeometry x="20" y="40" width="120" height="60" as="geometry" />
        </mxCell>
        <mxCell id="m4ZO5GO4-T3lixzv__rx-19" style="edgeStyle=orthogonalEdgeStyle;rounded=0;orthogonalLoop=1;jettySize=auto;html=1;entryX=0.147;entryY=0.053;entryDx=0;entryDy=0;entryPerimeter=0;" parent="m4ZO5GO4-T3lixzv__rx-6" source="m4ZO5GO4-T3lixzv__rx-17" target="m4ZO5GO4-T3lixzv__rx-11" edge="1">
          <mxGeometry relative="1" as="geometry">
            <Array as="points">
              <mxPoint x="80" y="130" />
              <mxPoint x="18" y="130" />
            </Array>
          </mxGeometry>
        </mxCell>
        <mxCell id="m4ZO5GO4-T3lixzv__rx-20" value="7. PLATFORM" style="rounded=0;whiteSpace=wrap;html=1;fillColor=#FFD6F7;" parent="m4ZO5GO4-T3lixzv__rx-6" vertex="1">
          <mxGeometry y="340" width="120" height="60" as="geometry" />
        </mxCell>
        <mxCell id="m4ZO5GO4-T3lixzv__rx-23" value="&amp;nbsp;8. MOUNT SYSTEM" style="rounded=0;whiteSpace=wrap;html=1;fillColor=#82CEFF;" parent="m4ZO5GO4-T3lixzv__rx-6" vertex="1">
          <mxGeometry y="280" width="120" height="60" as="geometry" />
        </mxCell>
        <mxCell id="m4ZO5GO4-T3lixzv__rx-24" value="6. DRIVE SYSTEM" style="rounded=0;whiteSpace=wrap;html=1;fillColor=#D194FF;" parent="m4ZO5GO4-T3lixzv__rx-6" vertex="1">
          <mxGeometry x="180" y="220" width="120" height="60" as="geometry" />
        </mxCell>
        <mxCell id="aFEqiTyNvZreS5R_LPJA-3" style="edgeStyle=orthogonalEdgeStyle;rounded=0;orthogonalLoop=1;jettySize=auto;html=1;entryX=1;entryY=0.5;entryDx=0;entryDy=0;" parent="m4ZO5GO4-T3lixzv__rx-6" source="aFEqiTyNvZreS5R_LPJA-2" target="m4ZO5GO4-T3lixzv__rx-14" edge="1">
          <mxGeometry relative="1" as="geometry" />
        </mxCell>
        <mxCell id="aFEqiTyNvZreS5R_LPJA-2" value="9. PERIPHERAL SENSOR SYSTEM" style="rounded=0;whiteSpace=wrap;html=1;fillColor=#7EA6E0;" parent="m4ZO5GO4-T3lixzv__rx-6" vertex="1">
          <mxGeometry x="190" y="40" width="120" height="60" as="geometry" />
        </mxCell>
        <mxCell id="aFEqiTyNvZreS5R_LPJA-16" value="" style="endArrow=none;dashed=1;html=1;rounded=0;entryX=0;entryY=0.75;entryDx=0;entryDy=0;" parent="m4ZO5GO4-T3lixzv__rx-6" target="m4ZO5GO4-T3lixzv__rx-14" edge="1">
          <mxGeometry width="50" height="50" relative="1" as="geometry">
            <mxPoint x="70" y="220" as="sourcePoint" />
            <mxPoint x="120" y="170" as="targetPoint" />
          </mxGeometry>
        </mxCell>
        <mxCell id="aFEqiTyNvZreS5R_LPJA-17" value="" style="endArrow=none;dashed=1;html=1;rounded=0;" parent="m4ZO5GO4-T3lixzv__rx-6" edge="1">
          <mxGeometry width="50" height="50" relative="1" as="geometry">
            <mxPoint x="216" y="130" as="sourcePoint" />
            <mxPoint x="246" y="100" as="targetPoint" />
          </mxGeometry>
        </mxCell>
        <mxCell id="aFEqiTyNvZreS5R_LPJA-18" value="" style="endArrow=none;dashed=1;html=1;rounded=0;entryX=0.75;entryY=0;entryDx=0;entryDy=0;" parent="m4ZO5GO4-T3lixzv__rx-6" target="m4ZO5GO4-T3lixzv__rx-24" edge="1">
          <mxGeometry width="50" height="50" relative="1" as="geometry">
            <mxPoint x="230" y="190" as="sourcePoint" />
            <mxPoint x="296" y="220" as="targetPoint" />
          </mxGeometry>
        </mxCell>
        <mxCell id="m4ZO5GO4-T3lixzv__rx-12" value="CHANNEL" style="text;strokeColor=none;fillColor=none;align=left;verticalAlign=middle;spacingLeft=4;spacingRight=4;overflow=hidden;points=[[0,0.5],[1,0.5]];portConstraint=eastwest;rotatable=0;whiteSpace=wrap;html=1;" parent="m4ZO5GO4-T3lixzv__rx-2" vertex="1">
          <mxGeometry x="325" y="230" width="80" height="30" as="geometry" />
        </mxCell>
        <mxCell id="aFEqiTyNvZreS5R_LPJA-9" value="" style="endArrow=classic;startArrow=classic;html=1;rounded=0;entryX=0;entryY=0.5;entryDx=0;entryDy=0;" parent="m4ZO5GO4-T3lixzv__rx-2" target="m4ZO5GO4-T3lixzv__rx-11" edge="1">
          <mxGeometry width="50" height="50" relative="1" as="geometry">
            <mxPoint x="270" y="280" as="sourcePoint" />
            <mxPoint x="360" y="280" as="targetPoint" />
          </mxGeometry>
        </mxCell>
        <mxCell id="aFEqiTyNvZreS5R_LPJA-10" value="1. Interface between Transmitter &amp;amp; Receiver" style="rounded=1;whiteSpace=wrap;html=1;fillColor=#AFFFB6;" parent="m4ZO5GO4-T3lixzv__rx-2" vertex="1">
          <mxGeometry x="300" y="290" width="130" height="60" as="geometry" />
        </mxCell>
        <mxCell id="aFEqiTyNvZreS5R_LPJA-14" value="" style="endArrow=none;dashed=1;html=1;rounded=0;entryX=0;entryY=0.25;entryDx=0;entryDy=0;" parent="m4ZO5GO4-T3lixzv__rx-2" target="m4ZO5GO4-T3lixzv__rx-11" edge="1">
          <mxGeometry width="50" height="50" relative="1" as="geometry">
            <mxPoint x="270" y="264.5" as="sourcePoint" />
            <mxPoint x="426" y="264.72" as="targetPoint" />
            <Array as="points">
              <mxPoint x="376" y="265" />
            </Array>
          </mxGeometry>
        </mxCell>
        <mxCell id="aFEqiTyNvZreS5R_LPJA-12" value="" style="endArrow=classic;html=1;rounded=0;" parent="WIyWlLk6GJQsqaUBKTNV-1" edge="1">
          <mxGeometry width="50" height="50" relative="1" as="geometry">
            <mxPoint x="24" y="540" as="sourcePoint" />
            <mxPoint x="80" y="540" as="targetPoint" />
          </mxGeometry>
        </mxCell>
        <mxCell id="aFEqiTyNvZreS5R_LPJA-19" value="" style="endArrow=none;dashed=1;html=1;rounded=0;" parent="WIyWlLk6GJQsqaUBKTNV-1" edge="1">
          <mxGeometry width="50" height="50" relative="1" as="geometry">
            <mxPoint x="24" y="560" as="sourcePoint" />
            <mxPoint x="84" y="560" as="targetPoint" />
          </mxGeometry>
        </mxCell>
        <mxCell id="aFEqiTyNvZreS5R_LPJA-20" value="Power&lt;div&gt;&lt;div&gt;&lt;span style=&quot;background-color: transparent; color: light-dark(rgb(0, 0, 0), rgb(255, 255, 255));&quot;&gt;Data&lt;/span&gt;&lt;/div&gt;&lt;/div&gt;" style="text;strokeColor=none;fillColor=none;align=left;verticalAlign=middle;spacingLeft=4;spacingRight=4;overflow=hidden;points=[[0,0.5],[1,0.5]];portConstraint=eastwest;rotatable=0;whiteSpace=wrap;html=1;" parent="WIyWlLk6GJQsqaUBKTNV-1" vertex="1">
          <mxGeometry x="90" y="530" width="60" height="40" as="geometry" />
        </mxCell>
      </root>
    </mxGraphModel>
  </diagram>
  <diagram id="Jqt1G8l4uNWQVp_tb_sp" name="Page-2">
    <mxGraphModel dx="1793" dy="884" grid="1" gridSize="10" guides="1" tooltips="1" connect="1" arrows="1" fold="1" page="1" pageScale="1" pageWidth="850" pageHeight="1100" math="0" shadow="0">
      <root>
        <mxCell id="0" />
        <mxCell id="1" parent="0" />
        <mxCell id="t4mXMo3u7TvbZJGJzRXQ-1" value="1. Interface between Transmitter &amp;amp; Receiver" style="rounded=1;whiteSpace=wrap;html=1;" parent="1" vertex="1">
          <mxGeometry x="425" y="40" width="130" height="60" as="geometry" />
        </mxCell>
        <mxCell id="t4mXMo3u7TvbZJGJzRXQ-2" value="Transmitter" style="rounded=0;whiteSpace=wrap;html=1;" parent="1" vertex="1">
          <mxGeometry x="205" y="260" width="120" height="60" as="geometry" />
        </mxCell>
        <mxCell id="t4mXMo3u7TvbZJGJzRXQ-20" style="edgeStyle=orthogonalEdgeStyle;rounded=0;orthogonalLoop=1;jettySize=auto;html=1;exitX=0.5;exitY=1;exitDx=0;exitDy=0;entryX=1;entryY=0.75;entryDx=0;entryDy=0;" parent="1" source="t4mXMo3u7TvbZJGJzRXQ-5" target="t4mXMo3u7TvbZJGJzRXQ-18" edge="1">
          <mxGeometry relative="1" as="geometry" />
        </mxCell>
        <mxCell id="t4mXMo3u7TvbZJGJzRXQ-5" value="Receiver 1" style="rounded=0;whiteSpace=wrap;html=1;" parent="1" vertex="1">
          <mxGeometry x="665" y="180" width="120" height="60" as="geometry" />
        </mxCell>
        <mxCell id="t4mXMo3u7TvbZJGJzRXQ-6" value="" style="endArrow=classic;html=1;rounded=0;entryX=0;entryY=0.5;entryDx=0;entryDy=0;" parent="1" edge="1">
          <mxGeometry relative="1" as="geometry">
            <mxPoint x="325" y="289.5" as="sourcePoint" />
            <mxPoint x="665" y="290" as="targetPoint" />
            <Array as="points" />
          </mxGeometry>
        </mxCell>
        <mxCell id="t4mXMo3u7TvbZJGJzRXQ-9" value="Constant signal emission from T to R" style="edgeLabel;html=1;align=center;verticalAlign=middle;resizable=0;points=[];" parent="t4mXMo3u7TvbZJGJzRXQ-6" vertex="1" connectable="0">
          <mxGeometry x="-0.0471" y="-1" relative="1" as="geometry">
            <mxPoint as="offset" />
          </mxGeometry>
        </mxCell>
        <mxCell id="t4mXMo3u7TvbZJGJzRXQ-11" value="Receiver 2" style="rounded=0;whiteSpace=wrap;html=1;" parent="1" vertex="1">
          <mxGeometry x="665" y="260" width="120" height="60" as="geometry" />
        </mxCell>
        <mxCell id="t4mXMo3u7TvbZJGJzRXQ-12" value="Receiver 3" style="rounded=0;whiteSpace=wrap;html=1;" parent="1" vertex="1">
          <mxGeometry x="665" y="340" width="120" height="60" as="geometry" />
        </mxCell>
        <mxCell id="t4mXMo3u7TvbZJGJzRXQ-14" value="" style="endArrow=classic;html=1;rounded=0;entryX=0;entryY=0.5;entryDx=0;entryDy=0;" parent="1" target="t4mXMo3u7TvbZJGJzRXQ-5" edge="1">
          <mxGeometry width="50" height="50" relative="1" as="geometry">
            <mxPoint x="325" y="290" as="sourcePoint" />
            <mxPoint x="375" y="240" as="targetPoint" />
          </mxGeometry>
        </mxCell>
        <mxCell id="t4mXMo3u7TvbZJGJzRXQ-15" value="" style="endArrow=classic;html=1;rounded=0;entryX=0;entryY=0.5;entryDx=0;entryDy=0;" parent="1" target="t4mXMo3u7TvbZJGJzRXQ-12" edge="1">
          <mxGeometry width="50" height="50" relative="1" as="geometry">
            <mxPoint x="325" y="290" as="sourcePoint" />
            <mxPoint x="415" y="310" as="targetPoint" />
          </mxGeometry>
        </mxCell>
        <mxCell id="t4mXMo3u7TvbZJGJzRXQ-16" value="Receivers in known positions" style="text;strokeColor=none;fillColor=none;align=left;verticalAlign=middle;spacingLeft=4;spacingRight=4;overflow=hidden;points=[[0,0.5],[1,0.5]];portConstraint=eastwest;rotatable=0;whiteSpace=wrap;html=1;" parent="1" vertex="1">
          <mxGeometry x="675" y="140" width="100" height="30" as="geometry" />
        </mxCell>
        <mxCell id="t4mXMo3u7TvbZJGJzRXQ-18" value="Control" style="rounded=0;whiteSpace=wrap;html=1;" parent="1" vertex="1">
          <mxGeometry x="430" y="390" width="120" height="60" as="geometry" />
        </mxCell>
        <mxCell id="t4mXMo3u7TvbZJGJzRXQ-21" value="Relative position &amp;amp; distance&amp;nbsp;" style="text;strokeColor=none;fillColor=none;align=left;verticalAlign=middle;spacingLeft=4;spacingRight=4;overflow=hidden;points=[[0,0.5],[1,0.5]];portConstraint=eastwest;rotatable=0;whiteSpace=wrap;html=1;" parent="1" vertex="1">
          <mxGeometry x="555" y="360" width="80" height="80" as="geometry" />
        </mxCell>
        <mxCell id="t4mXMo3u7TvbZJGJzRXQ-22" value="&lt;ul data-pm-slice=&quot;3 3 []&quot; dir=&quot;ltr&quot; data-tight=&quot;true&quot; class=&quot;tight&quot;&gt;&lt;li&gt;&lt;p dir=&quot;ltr&quot;&gt;&lt;strong&gt;UWB Transmitter&lt;/strong&gt;: Emits periodic UWB pulses (e.g., every 20 ms) to all receivers.&lt;/p&gt;&lt;/li&gt;&lt;li&gt;&lt;p dir=&quot;ltr&quot;&gt;&lt;strong&gt;Receivers (1 to N)&lt;/strong&gt;: Each receiver captures pulses, calculates ToF/TDoA, and computes distance. Receivers are synchronized via a clock sync mechanism (e.g., shared clock or network protocol).&lt;/p&gt;&lt;/li&gt;&lt;li&gt;&lt;p dir=&quot;ltr&quot;&gt;&lt;strong style=&quot;background-color: transparent; color: light-dark(rgb(0, 0, 0), rgb(255, 255, 255));&quot;&gt;Central Processor&lt;/strong&gt;&lt;span style=&quot;background-color: transparent; color: light-dark(rgb(0, 0, 0), rgb(255, 255, 255));&quot;&gt;: Runs trilateration/multilateration algorithms to compute the transmitter’s position and outputs continuous updates to an application (e.g., via MQTT or a display).&lt;/span&gt;&lt;/p&gt;&lt;/li&gt;&lt;/ul&gt;" style="text;strokeColor=none;fillColor=none;align=left;verticalAlign=middle;spacingLeft=4;spacingRight=4;overflow=hidden;points=[[0,0.5],[1,0.5]];portConstraint=eastwest;rotatable=0;whiteSpace=wrap;html=1;" parent="1" vertex="1">
          <mxGeometry x="65" y="30" width="330" height="170" as="geometry" />
        </mxCell>
      </root>
    </mxGraphModel>
  </diagram>
  <diagram id="PunxtM9WqN6rl1RUI9SC" name="Page-3">
    <mxGraphModel grid="1" page="1" gridSize="10" guides="1" tooltips="1" connect="1" arrows="1" fold="1" pageScale="1" pageWidth="850" pageHeight="1100" math="0" shadow="0">
      <root>
        <mxCell id="0" />
        <mxCell id="1" parent="0" />
        <mxCell id="7p8SB0BI8z-qEqtDmS6W-1" value="" style="edgeStyle=orthogonalEdgeStyle;rounded=0;orthogonalLoop=1;jettySize=auto;html=1;fillColor=#E1D5E7;" edge="1" parent="1" source="7p8SB0BI8z-qEqtDmS6W-2" target="7p8SB0BI8z-qEqtDmS6W-4">
          <mxGeometry relative="1" as="geometry" />
        </mxCell>
        <mxCell id="7p8SB0BI8z-qEqtDmS6W-2" value="Camera records Imagery" style="rounded=0;whiteSpace=wrap;html=1;fillColor=#E1D5E7;" vertex="1" parent="1">
          <mxGeometry x="108" y="260" width="120" height="50" as="geometry" />
        </mxCell>
        <mxCell id="7p8SB0BI8z-qEqtDmS6W-3" value="" style="edgeStyle=orthogonalEdgeStyle;rounded=0;orthogonalLoop=1;jettySize=auto;html=1;fillColor=#E1D5E7;" edge="1" parent="1" source="7p8SB0BI8z-qEqtDmS6W-4" target="7p8SB0BI8z-qEqtDmS6W-6">
          <mxGeometry relative="1" as="geometry" />
        </mxCell>
        <mxCell id="7p8SB0BI8z-qEqtDmS6W-4" value="Pre-processing&amp;nbsp;&lt;div&gt;(fisheye processing&lt;span style=&quot;background-color: transparent; color: light-dark(rgb(0, 0, 0), rgb(255, 255, 255));&quot;&gt;)&lt;/span&gt;&lt;/div&gt;" style="ellipse;whiteSpace=wrap;html=1;fillColor=#E1D5E7;" vertex="1" parent="1">
          <mxGeometry x="108" y="340" width="120" height="80" as="geometry" />
        </mxCell>
        <mxCell id="7p8SB0BI8z-qEqtDmS6W-5" style="edgeStyle=orthogonalEdgeStyle;rounded=0;orthogonalLoop=1;jettySize=auto;html=1;entryX=0;entryY=0.5;entryDx=0;entryDy=0;fillColor=#E1D5E7;" edge="1" parent="1" source="7p8SB0BI8z-qEqtDmS6W-6" target="7p8SB0BI8z-qEqtDmS6W-8">
          <mxGeometry relative="1" as="geometry" />
        </mxCell>
        <mxCell id="7p8SB0BI8z-qEqtDmS6W-6" value="Black and White conversion" style="ellipse;whiteSpace=wrap;html=1;fillColor=#E1D5E7;" vertex="1" parent="1">
          <mxGeometry x="108" y="440" width="120" height="80" as="geometry" />
        </mxCell>
        <mxCell id="7p8SB0BI8z-qEqtDmS6W-7" style="edgeStyle=orthogonalEdgeStyle;rounded=0;orthogonalLoop=1;jettySize=auto;html=1;entryX=0.5;entryY=1;entryDx=0;entryDy=0;fillColor=#E1D5E7;" edge="1" parent="1" source="7p8SB0BI8z-qEqtDmS6W-8" target="7p8SB0BI8z-qEqtDmS6W-10">
          <mxGeometry relative="1" as="geometry">
            <Array as="points">
              <mxPoint x="352" y="570" />
            </Array>
          </mxGeometry>
        </mxCell>
        <mxCell id="7p8SB0BI8z-qEqtDmS6W-8" value="Object recognition" style="ellipse;whiteSpace=wrap;html=1;fillColor=#C3ABD0;" vertex="1" parent="1">
          <mxGeometry x="198" y="530" width="120" height="80" as="geometry" />
        </mxCell>
        <mxCell id="7p8SB0BI8z-qEqtDmS6W-9" value="" style="edgeStyle=orthogonalEdgeStyle;rounded=0;orthogonalLoop=1;jettySize=auto;html=1;fillColor=#E1D5E7;" edge="1" parent="1" source="7p8SB0BI8z-qEqtDmS6W-10" target="7p8SB0BI8z-qEqtDmS6W-12">
          <mxGeometry relative="1" as="geometry" />
        </mxCell>
        <mxCell id="7p8SB0BI8z-qEqtDmS6W-10" value="Detect Object in Stereo image" style="ellipse;whiteSpace=wrap;html=1;fillColor=#E1D5E7;" vertex="1" parent="1">
          <mxGeometry x="292" y="440" width="120" height="80" as="geometry" />
        </mxCell>
        <mxCell id="7p8SB0BI8z-qEqtDmS6W-11" value="" style="edgeStyle=orthogonalEdgeStyle;rounded=0;orthogonalLoop=1;jettySize=auto;html=1;fillColor=#E1D5E7;" edge="1" parent="1" source="7p8SB0BI8z-qEqtDmS6W-12" target="7p8SB0BI8z-qEqtDmS6W-15">
          <mxGeometry relative="1" as="geometry" />
        </mxCell>
        <mxCell id="7p8SB0BI8z-qEqtDmS6W-12" value="Calculate Disparity&amp;nbsp;" style="ellipse;whiteSpace=wrap;html=1;fillColor=#E1D5E7;" vertex="1" parent="1">
          <mxGeometry x="292" y="340" width="120" height="80" as="geometry" />
        </mxCell>
        <mxCell id="7p8SB0BI8z-qEqtDmS6W-13" value="" style="edgeStyle=orthogonalEdgeStyle;rounded=0;orthogonalLoop=1;jettySize=auto;html=1;fillColor=#E1D5E7;" edge="1" parent="1" source="7p8SB0BI8z-qEqtDmS6W-15" target="7p8SB0BI8z-qEqtDmS6W-2">
          <mxGeometry relative="1" as="geometry" />
        </mxCell>
        <mxCell id="7p8SB0BI8z-qEqtDmS6W-14" style="edgeStyle=orthogonalEdgeStyle;rounded=0;orthogonalLoop=1;jettySize=auto;html=1;entryX=0.5;entryY=0;entryDx=0;entryDy=0;" edge="1" parent="1" source="7p8SB0BI8z-qEqtDmS6W-15" target="7p8SB0BI8z-qEqtDmS6W-30">
          <mxGeometry relative="1" as="geometry">
            <Array as="points">
              <mxPoint x="438" y="285" />
              <mxPoint x="438" y="240" />
              <mxPoint x="683" y="240" />
            </Array>
          </mxGeometry>
        </mxCell>
        <mxCell id="7p8SB0BI8z-qEqtDmS6W-15" value="Generate Depth-Map" style="whiteSpace=wrap;html=1;fillColor=#E1D5E7;" vertex="1" parent="1">
          <mxGeometry x="292" y="260" width="120" height="50" as="geometry" />
        </mxCell>
        <mxCell id="7p8SB0BI8z-qEqtDmS6W-16" value="Image Processing Loop" style="rounded=1;whiteSpace=wrap;html=1;fillColor=#7EA6E0;" vertex="1" parent="1">
          <mxGeometry x="198" y="160" width="120" height="60" as="geometry" />
        </mxCell>
        <mxCell id="7p8SB0BI8z-qEqtDmS6W-17" value="" style="edgeStyle=orthogonalEdgeStyle;rounded=0;orthogonalLoop=1;jettySize=auto;html=1;fillColor=#D5E8D4;" edge="1" parent="1" source="7p8SB0BI8z-qEqtDmS6W-18" target="7p8SB0BI8z-qEqtDmS6W-21">
          <mxGeometry relative="1" as="geometry" />
        </mxCell>
        <mxCell id="7p8SB0BI8z-qEqtDmS6W-18" value="Transmit Signal from Master across channel" style="rounded=0;whiteSpace=wrap;html=1;fillColor=#D5E8D4;" vertex="1" parent="1">
          <mxGeometry x="428" y="535" width="126" height="50" as="geometry" />
        </mxCell>
        <mxCell id="7p8SB0BI8z-qEqtDmS6W-19" value="UWB Loop&amp;nbsp;" style="rounded=1;whiteSpace=wrap;html=1;fillColor=#FF8282;" vertex="1" parent="1">
          <mxGeometry x="518" y="440" width="120" height="60" as="geometry" />
        </mxCell>
        <mxCell id="7p8SB0BI8z-qEqtDmS6W-20" style="edgeStyle=orthogonalEdgeStyle;rounded=0;orthogonalLoop=1;jettySize=auto;html=1;fillColor=#D5E8D4;" edge="1" parent="1" source="7p8SB0BI8z-qEqtDmS6W-21">
          <mxGeometry relative="1" as="geometry">
            <mxPoint x="491" y="715" as="targetPoint" />
          </mxGeometry>
        </mxCell>
        <mxCell id="7p8SB0BI8z-qEqtDmS6W-21" value="Receive&amp;nbsp;" style="ellipse;whiteSpace=wrap;html=1;fillColor=#D5E8D4;" vertex="1" parent="1">
          <mxGeometry x="431" y="615" width="120" height="80" as="geometry" />
        </mxCell>
        <mxCell id="7p8SB0BI8z-qEqtDmS6W-22" style="edgeStyle=orthogonalEdgeStyle;rounded=0;orthogonalLoop=1;jettySize=auto;html=1;fillColor=#D5E8D4;" edge="1" parent="1" source="7p8SB0BI8z-qEqtDmS6W-23" target="7p8SB0BI8z-qEqtDmS6W-25">
          <mxGeometry relative="1" as="geometry" />
        </mxCell>
        <mxCell id="7p8SB0BI8z-qEqtDmS6W-23" value="Process and intake message, compare position&amp;nbsp;" style="ellipse;whiteSpace=wrap;html=1;fillColor=#D5E8D4;" vertex="1" parent="1">
          <mxGeometry x="431" y="715" width="120" height="80" as="geometry" />
        </mxCell>
        <mxCell id="7p8SB0BI8z-qEqtDmS6W-24" value="" style="edgeStyle=orthogonalEdgeStyle;rounded=0;orthogonalLoop=1;jettySize=auto;html=1;fillColor=#D5E8D4;" edge="1" parent="1" source="7p8SB0BI8z-qEqtDmS6W-25" target="7p8SB0BI8z-qEqtDmS6W-27">
          <mxGeometry relative="1" as="geometry" />
        </mxCell>
        <mxCell id="7p8SB0BI8z-qEqtDmS6W-25" value="Perform operations to calculate relative distance/angle" style="ellipse;whiteSpace=wrap;html=1;fillColor=#D5E8D4;" vertex="1" parent="1">
          <mxGeometry x="598" y="715" width="120" height="80" as="geometry" />
        </mxCell>
        <mxCell id="7p8SB0BI8z-qEqtDmS6W-26" value="" style="edgeStyle=orthogonalEdgeStyle;rounded=0;orthogonalLoop=1;jettySize=auto;html=1;fillColor=#D5E8D4;" edge="1" parent="1" source="7p8SB0BI8z-qEqtDmS6W-27" target="7p8SB0BI8z-qEqtDmS6W-33">
          <mxGeometry relative="1" as="geometry" />
        </mxCell>
        <mxCell id="7p8SB0BI8z-qEqtDmS6W-27" value="Perform operations to calculate relative distance/angle" style="ellipse;whiteSpace=wrap;html=1;fillColor=#D5E8D4;" vertex="1" parent="1">
          <mxGeometry x="598" y="610" width="120" height="80" as="geometry" />
        </mxCell>
        <mxCell id="7p8SB0BI8z-qEqtDmS6W-28" value="" style="edgeStyle=orthogonalEdgeStyle;rounded=0;orthogonalLoop=1;jettySize=auto;html=1;" edge="1" parent="1" source="7p8SB0BI8z-qEqtDmS6W-29" target="7p8SB0BI8z-qEqtDmS6W-30">
          <mxGeometry relative="1" as="geometry" />
        </mxCell>
        <mxCell id="7p8SB0BI8z-qEqtDmS6W-29" value="Send Instructions to Motors&amp;nbsp;" style="whiteSpace=wrap;html=1;fillColor=#FF6666;" vertex="1" parent="1">
          <mxGeometry x="473" y="260" width="120" height="50" as="geometry" />
        </mxCell>
        <mxCell id="7p8SB0BI8z-qEqtDmS6W-30" value="Send Interrupts (e.g Stop)&amp;nbsp;&amp;nbsp;" style="whiteSpace=wrap;html=1;fillColor=#FFE599;" vertex="1" parent="1">
          <mxGeometry x="623" y="260" width="120" height="50" as="geometry" />
        </mxCell>
        <mxCell id="7p8SB0BI8z-qEqtDmS6W-31" value="" style="edgeStyle=orthogonalEdgeStyle;rounded=0;orthogonalLoop=1;jettySize=auto;html=1;" edge="1" parent="1" source="7p8SB0BI8z-qEqtDmS6W-33">
          <mxGeometry relative="1" as="geometry">
            <mxPoint x="643" y="560" as="sourcePoint" />
            <mxPoint x="533" y="310" as="targetPoint" />
            <Array as="points">
              <mxPoint x="743" y="560" />
              <mxPoint x="743" y="390" />
              <mxPoint x="533" y="390" />
            </Array>
          </mxGeometry>
        </mxCell>
        <mxCell id="7p8SB0BI8z-qEqtDmS6W-32" value="" style="edgeStyle=orthogonalEdgeStyle;rounded=0;orthogonalLoop=1;jettySize=auto;html=1;fillColor=#D5E8D4;" edge="1" parent="1" source="7p8SB0BI8z-qEqtDmS6W-33" target="7p8SB0BI8z-qEqtDmS6W-18">
          <mxGeometry relative="1" as="geometry" />
        </mxCell>
        <mxCell id="7p8SB0BI8z-qEqtDmS6W-33" value="Generate vector" style="whiteSpace=wrap;html=1;fillColor=#D5E8D4;" vertex="1" parent="1">
          <mxGeometry x="598" y="535" width="120" height="50" as="geometry" />
        </mxCell>
        <mxCell id="7p8SB0BI8z-qEqtDmS6W-34" value="4. Control" style="rounded=0;whiteSpace=wrap;html=1;fillColor=#97D077;" vertex="1" parent="1">
          <mxGeometry x="393" y="60" width="120" height="60" as="geometry" />
        </mxCell>
      </root>
    </mxGraphModel>
  </diagram>
</mxfile>
